<svg width="280" height="126" viewBox="0 0 280 126" fill="none" xmlns="http://www.w3.org/2000/svg">
<path d="M163.709 25.207H154.156V63.1031H163.709V25.207Z" fill="white"/>
<path d="M47.6175 54.8078C46.4378 55.1545 45.1255 55.3483 43.6535 55.3483C42.3276 55.3483 41.0527 55.1205 39.8289 54.6616C38.605 54.2026 37.5069 53.5805 36.5414 52.7884C35.5725 51.9997 34.7939 51.0545 34.2092 49.9599C33.6211 48.8652 33.2777 47.6549 33.1757 46.329H61.087C60.9714 41.2125 60.7164 37.6769 59.8257 35.2019C58.9316 32.7303 57.6975 30.6633 56.1166 29.0077C54.5358 27.3521 52.6626 26.101 50.497 25.2613C48.3314 24.4182 45.9721 24 43.4223 24C40.6686 24 38.1086 24.4726 35.7391 25.4143C33.3695 26.3594 31.3161 27.6818 29.5822 29.3919C27.8484 31.0985 26.4852 33.1655 25.4925 35.5861C24.4964 38.0066 24 40.6958 24 43.6535C24 46.6112 24.4964 49.3513 25.4925 51.7209C26.4852 54.0904 27.862 56.0928 29.6231 57.7247C31.3807 59.3565 33.4579 60.6178 35.8547 61.5085C38.2514 62.3992 40.876 62.848 43.7317 62.848C46.7846 62.848 49.4941 62.338 51.9079 61.3759C49.4567 60.1588 47.7535 57.7043 47.6209 54.8146L47.6175 54.8078ZM36.3476 33.3661C38.2582 31.7104 40.5903 30.8809 43.3441 30.8809C44.8229 30.8809 46.108 31.1223 47.2061 31.6085C48.3008 32.0946 49.2051 32.7439 49.9225 33.5599C50.6364 34.3758 51.1566 35.3175 51.4897 36.3884C51.8195 37.4593 51.9861 38.5812 51.9861 39.7541H33.1757C33.3797 37.1533 34.437 35.0251 36.3476 33.3695V33.3661Z" fill="white"/>
<path d="M55.3176 59.1459C57.903 59.1459 59.9989 57.05 59.9989 54.4646C59.9989 51.8791 57.903 49.7832 55.3176 49.7832C52.7321 49.7832 50.6362 51.8791 50.6362 54.4646C50.6362 57.05 52.7321 59.1459 55.3176 59.1459Z" fill="white"/>
<path d="M208.962 35.7764C208.095 33.4306 206.871 31.3942 205.29 29.6604C203.71 27.9265 201.823 26.5633 199.633 25.5706C197.441 24.5779 195.044 24.0781 192.447 24.0781C190.764 24.0781 189.247 24.2685 187.898 24.6527C186.545 25.0334 185.334 25.5196 184.267 26.1043C183.196 26.6891 182.292 27.3554 181.551 28.0931C180.809 28.8309 180.211 29.5584 179.752 30.2723H179.521V25.149H170.726V69.5759C172.018 68.607 173.606 68.012 175.346 68.012C177.087 68.012 178.623 68.5832 179.902 69.5249V56.9597H180.055C181.228 58.7955 182.897 60.2472 185.062 61.3181C187.228 62.389 189.611 62.9227 192.212 62.9227C195.017 62.9227 197.526 62.3992 199.746 61.3555C201.962 60.3118 203.849 58.9077 205.406 57.1501C206.96 55.3924 208.16 53.3289 208.999 50.9559C209.839 48.5863 210.261 46.0502 210.261 43.3474C210.261 40.6447 209.826 38.1221 208.962 35.7764ZM201.932 47.6276C201.496 49.0555 200.847 50.3304 199.984 51.4488C199.117 52.5707 198.019 53.4886 196.696 54.2026C195.37 54.9165 193.817 55.2735 192.032 55.2735C190.349 55.2735 188.846 54.9301 187.52 54.24C186.195 53.5532 185.059 52.6489 184.117 51.527C183.172 50.4051 182.462 49.1439 181.976 47.7398C181.489 46.3391 181.248 44.9249 181.248 43.497C181.248 42.0692 181.489 40.6447 181.976 39.2168C182.458 37.789 183.172 36.5141 184.117 35.3922C185.059 34.2737 186.195 33.3524 187.52 32.6385C188.846 31.9246 190.349 31.5676 192.032 31.5676C193.817 31.5676 195.37 31.9109 196.696 32.6011C198.022 33.2878 199.117 34.1955 199.984 35.314C200.85 36.4359 201.5 37.6972 201.932 39.0978C202.363 40.5019 202.581 41.9162 202.581 43.3406C202.581 44.7651 202.363 46.1963 201.932 47.6242V47.6276Z" fill="white"/>
<path d="M175.349 80.4271C177.935 80.4271 180.031 78.3312 180.031 75.7458C180.031 73.1604 177.935 71.0645 175.349 71.0645C172.764 71.0645 170.668 73.1604 170.668 75.7458C170.668 78.3312 172.764 80.4271 175.349 80.4271Z" fill="white"/>
<path d="M67.305 35.7764C68.172 33.4306 69.3958 31.3942 70.9766 29.6604C72.5575 27.9265 74.4443 26.5633 76.6337 25.5706C78.8265 24.5779 81.2232 24.0781 83.8206 24.0781C85.5034 24.0781 87.0197 24.2685 88.3694 24.6527C89.7224 25.0334 90.9327 25.5196 92.0002 26.1043C93.0711 26.6891 93.9754 27.3554 94.7165 28.0931C95.4576 28.8309 96.056 29.5584 96.5149 30.2723H96.7461V25.149H105.541V69.5759C104.249 68.607 102.662 68.012 100.921 68.012C99.1803 68.012 97.6437 68.5832 96.3654 69.5249V56.9597H96.2123C95.0394 58.7955 93.3702 60.2472 91.2046 61.3181C89.039 62.389 86.6559 62.9227 84.0551 62.9227C81.2504 62.9227 78.7415 62.3992 76.5215 61.3555C74.3049 60.3118 72.4181 58.9077 70.8611 57.1501C69.3074 55.3924 68.1073 53.3289 67.2676 50.9559C66.4279 48.5863 66.0063 46.0502 66.0063 43.3474C66.0063 40.6447 66.4415 38.1221 67.305 35.7764ZM74.3355 47.6276C74.7707 49.0555 75.42 50.3304 76.2835 51.4488C77.1504 52.5707 78.2485 53.4886 79.571 54.2026C80.8969 54.9165 82.4505 55.2735 84.2353 55.2735C85.9181 55.2735 87.4208 54.9301 88.7467 54.24C90.0725 53.5532 91.208 52.6489 92.1497 51.527C93.0949 50.4051 93.8054 49.1439 94.2916 47.7398C94.7777 46.3391 95.019 44.9249 95.019 43.497C95.019 42.0692 94.7777 40.6447 94.2916 39.2168C93.8088 37.789 93.0949 36.5141 92.1497 35.3922C91.208 34.2737 90.0725 33.3524 88.7467 32.6385C87.4208 31.9246 85.9181 31.5676 84.2353 31.5676C82.4505 31.5676 80.8969 31.9109 79.571 32.6011C78.2451 33.2878 77.1504 34.1955 76.2835 35.314C75.4166 36.4359 74.7673 37.6972 74.3355 39.0978C73.9038 40.5019 73.6861 41.9162 73.6861 43.3406C73.6861 44.7651 73.9038 46.1963 74.3355 47.6242V47.6276Z" fill="white"/>
<path d="M100.918 80.4281C103.503 80.4281 105.599 78.3322 105.599 75.7468C105.599 73.1613 103.503 71.0654 100.918 71.0654C98.3322 71.0654 96.2363 73.1613 96.2363 75.7468C96.2363 78.3322 98.3322 80.4281 100.918 80.4281Z" fill="white"/>
<path d="M254.385 35.6983C253.519 33.3525 252.295 31.3161 250.714 29.5823C249.133 27.8484 247.246 26.4852 245.057 25.4925C242.864 24.4998 240.467 24 237.87 24C236.187 24 234.671 24.1904 233.321 24.5745C231.968 24.9553 230.758 25.4415 229.69 26.0262C228.619 26.6109 227.715 27.2773 226.974 28.015C226.233 28.7527 225.634 29.4803 225.176 30.1942H224.944V25.0709H216.149V69.4977C217.441 68.5288 219.029 67.9339 220.77 67.9339C222.51 67.9339 224.047 68.505 225.325 69.4467V56.8816H225.478C226.651 58.7174 228.32 60.1691 230.486 61.2399C232.651 62.3108 235.035 62.8446 237.635 62.8446C240.44 62.8446 242.949 62.321 245.169 61.2773C247.386 60.2336 249.272 58.8296 250.829 57.072C252.383 55.3143 253.583 53.2507 254.423 50.8778C255.263 48.5082 255.684 45.972 255.684 43.2693C255.684 40.5666 255.249 38.044 254.385 35.6983ZM247.355 47.5495C246.92 48.9773 246.27 50.2522 245.407 51.3707C244.54 52.4926 243.442 53.4105 242.12 54.1244C240.794 54.8384 239.24 55.1953 237.455 55.1953C235.772 55.1953 234.27 54.852 232.944 54.1618C231.618 53.4751 230.482 52.5708 229.541 51.4489C228.596 50.327 227.885 49.0657 227.399 47.6617C226.913 46.261 226.671 44.8468 226.671 43.4189C226.671 41.991 226.913 40.5666 227.399 39.1387C227.882 37.7109 228.596 36.436 229.541 35.3141C230.482 34.1956 231.618 33.2743 232.944 32.5604C234.27 31.8464 235.772 31.4895 237.455 31.4895C239.24 31.4895 240.794 31.8328 242.12 32.523C243.445 33.2097 244.54 34.1174 245.407 35.2359C246.274 36.3578 246.923 37.6191 247.355 39.0197C247.787 40.4238 248.004 41.8381 248.004 43.2625C248.004 44.687 247.787 46.1182 247.355 47.5461V47.5495Z" fill="white"/>
<path d="M220.772 80.349C223.358 80.349 225.454 78.2531 225.454 75.6677C225.454 73.0822 223.358 70.9863 220.772 70.9863C218.187 70.9863 216.091 73.0822 216.091 75.6677C216.091 78.2531 218.187 80.349 220.772 80.349Z" fill="white"/>
<path d="M147.139 25.207V62.6951H138.236V56.6811H138.079C137.246 58.5578 135.798 60.21 133.745 61.6413C131.688 63.0725 129.254 63.7898 126.442 63.7898C123.998 63.7898 121.9 63.3581 120.156 62.5014C118.412 61.6447 116.981 60.5092 115.862 59.1051C114.741 57.6976 113.921 56.0862 113.404 54.264C112.884 52.4418 112.623 50.5685 112.623 48.6409V25.2104H121.995V45.9858C121.995 47.0805 122.074 48.2228 122.227 49.4229C122.383 50.6229 122.72 51.7006 123.243 52.6627C123.767 53.6249 124.481 54.4204 125.392 55.0459C126.303 55.668 127.516 55.9842 129.023 55.9842C130.529 55.9842 131.766 55.685 132.891 55.0867C134.01 54.4883 134.921 53.72 135.625 52.7817C136.325 51.8434 136.859 50.7623 137.226 49.5418C137.467 48.7361 137.624 47.9236 137.705 47.1043V25.2138H147.143L147.139 25.207Z" fill="white"/>
<path d="M31.476 102.121H30.0686C29.8 102.121 29.6096 102.019 29.4872 101.811L27.7262 99.146C27.6616 99.0474 27.5868 98.976 27.5086 98.9318C27.4304 98.891 27.3114 98.8672 27.1584 98.8672H26.4921V102.117H24.9316V93.7949H27.4882C28.0559 93.7949 28.5455 93.8527 28.9535 93.9717C29.3614 94.0873 29.6946 94.2539 29.9564 94.4646C30.2181 94.6754 30.4085 94.927 30.5343 95.2228C30.6567 95.5152 30.7213 95.8381 30.7213 96.1917C30.7213 96.4705 30.6804 96.7356 30.5955 96.9872C30.5105 97.2354 30.3915 97.4631 30.2352 97.6671C30.0788 97.8711 29.885 98.0479 29.6538 98.2009C29.4226 98.3539 29.1609 98.4763 28.8685 98.5646C28.9671 98.6224 29.0623 98.6904 29.1473 98.7686C29.2323 98.8468 29.3104 98.9386 29.3784 99.0474L31.476 102.121ZM27.4644 97.7589C27.7567 97.7589 28.0151 97.7215 28.2327 97.6501C28.4503 97.5787 28.6305 97.4768 28.7699 97.3476C28.9127 97.2184 29.0146 97.0654 29.086 96.8886C29.154 96.7118 29.1914 96.518 29.1914 96.3073C29.1914 95.8857 29.052 95.5627 28.7699 95.335C28.4877 95.1072 28.0627 94.995 27.4848 94.995H26.4887V97.7555H27.461L27.4644 97.7589Z" fill="white"/>
<path d="M36.8476 95.0329V97.3413H39.7814V98.5312H36.8476V100.884H40.5702V102.121H35.2837V93.7988H40.5702V95.0295H36.8476V95.0329Z" fill="white"/>
<path d="M51.9151 93.8017V102.124H51.1161C50.9938 102.124 50.8884 102.104 50.8068 102.063C50.7252 102.022 50.6436 101.954 50.5654 101.859L46.19 96.3107C46.2138 96.5656 46.2241 96.7968 46.2241 97.011V102.121H44.8506V93.7983H45.6665C45.7311 93.7983 45.7889 93.7983 45.8365 93.8085C45.8841 93.8153 45.9283 93.8255 45.9657 93.8425C46.0031 93.8595 46.037 93.8833 46.0744 93.9173C46.1084 93.9513 46.1492 93.9921 46.19 94.0465L50.5824 99.6151C50.5722 99.4826 50.562 99.35 50.5552 99.2174C50.5484 99.0882 50.545 98.9658 50.545 98.8536V93.7949H51.9185L51.9151 93.8017Z" fill="white"/>
<path d="M62.5313 95.0733H60.0053V102.124H58.4449V95.0733H55.9189V93.8018H62.5313V95.0733Z" fill="white"/>
<path d="M73.4583 95.0329V97.3413H76.3923V98.5312H73.4583V100.884H77.1809V102.121H71.8945V93.7988H77.1809V95.0295H73.4583V95.0329Z" fill="white"/>
<path d="M88.6376 102.121H87.4307C87.2948 102.121 87.186 102.087 87.101 102.019C87.016 101.951 86.9514 101.869 86.9106 101.767L86.285 100.071H82.814L82.1884 101.767C82.1578 101.856 82.0967 101.937 82.0083 102.009C81.9199 102.08 81.8076 102.117 81.6784 102.117H80.4614L83.7591 93.7949H85.3467L88.6376 102.117V102.121ZM85.8839 98.9794L84.864 96.2121C84.813 96.0897 84.762 95.9435 84.7076 95.7735C84.6532 95.6035 84.5988 95.4233 84.5444 95.2262C84.4934 95.4233 84.4425 95.6069 84.3881 95.7769C84.3337 95.9469 84.2826 96.0965 84.2316 96.2223L83.2185 98.9794H85.8839Z" fill="white"/>
<path d="M96.8679 95.3151C96.8203 95.3967 96.7727 95.4545 96.7217 95.4919C96.6707 95.5293 96.6062 95.5463 96.528 95.5463C96.4498 95.5463 96.358 95.5157 96.2628 95.4579C96.1676 95.4001 96.0554 95.3322 95.9228 95.2608C95.7902 95.1894 95.6372 95.1214 95.4604 95.0636C95.2836 95.0058 95.0763 94.9752 94.8383 94.9752C94.6208 94.9752 94.4337 95.0024 94.2705 95.0534C94.1074 95.1044 93.9714 95.1758 93.8626 95.2675C93.7538 95.3593 93.6688 95.4715 93.6178 95.5973C93.5668 95.7231 93.5362 95.8659 93.5362 96.0189C93.5362 96.2161 93.5906 96.3758 93.7028 96.5084C93.815 96.641 93.9578 96.7498 94.1414 96.8416C94.3216 96.9334 94.529 97.015 94.7602 97.0898C94.9913 97.1612 95.2293 97.2394 95.474 97.3244C95.7188 97.406 95.9568 97.5011 96.188 97.6133C96.4192 97.7221 96.6265 97.8615 96.8067 98.0281C96.9869 98.1947 97.1331 98.3987 97.2453 98.64C97.354 98.8814 97.4118 99.1738 97.4118 99.5205C97.4118 99.8979 97.3473 100.248 97.2181 100.578C97.0889 100.908 96.8985 101.193 96.6503 101.435C96.4021 101.679 96.0962 101.87 95.7358 102.009C95.3755 102.148 94.9641 102.22 94.5018 102.22C94.2332 102.22 93.9714 102.193 93.713 102.142C93.4547 102.091 93.2065 102.016 92.9685 101.921C92.7306 101.826 92.5061 101.71 92.2987 101.574C92.0913 101.441 91.9044 101.292 91.7412 101.125L92.2002 100.384C92.2376 100.33 92.2886 100.285 92.3498 100.248C92.411 100.211 92.479 100.194 92.547 100.194C92.6422 100.194 92.7475 100.234 92.8597 100.313C92.9719 100.391 93.1045 100.479 93.2609 100.574C93.4172 100.67 93.5974 100.758 93.8014 100.836C94.0088 100.914 94.257 100.955 94.5459 100.955C94.9913 100.955 95.3347 100.85 95.5794 100.642C95.8242 100.435 95.9432 100.132 95.9432 99.7415C95.9432 99.5239 95.8888 99.3438 95.7767 99.2078C95.6679 99.0684 95.5217 98.9528 95.3381 98.861C95.1579 98.7658 94.9505 98.6876 94.7193 98.623C94.4881 98.5584 94.2501 98.487 94.0122 98.4089C93.7742 98.3307 93.5363 98.2389 93.3051 98.1335C93.0739 98.0247 92.8665 97.8853 92.6863 97.7119C92.5061 97.5385 92.3599 97.3244 92.2478 97.066C92.139 96.8076 92.0812 96.488 92.0812 96.1073C92.0812 95.8047 92.1424 95.5089 92.2648 95.22C92.3872 94.931 92.564 94.676 92.7951 94.455C93.0263 94.2341 93.3119 94.0539 93.6519 93.9213C93.9918 93.7887 94.3828 93.7207 94.8213 93.7207C95.3177 93.7207 95.7732 93.7989 96.188 93.9519C96.6028 94.1049 96.9597 94.3191 97.2555 94.5978L96.8679 95.3288V95.3151Z" fill="white"/>
<path d="M105.072 98.9013V102.124H103.518V98.9013L100.462 93.8018H101.835C101.971 93.8018 102.077 93.8358 102.158 93.9004C102.237 93.965 102.305 94.0465 102.359 94.1485L103.889 96.9261C103.977 97.0926 104.055 97.2456 104.123 97.3918C104.191 97.538 104.253 97.6842 104.307 97.8304C104.358 97.6842 104.416 97.538 104.48 97.3918C104.545 97.2456 104.623 97.0892 104.708 96.9261L106.231 94.1485C106.272 94.0635 106.337 93.9853 106.422 93.914C106.507 93.8426 106.615 93.8052 106.748 93.8052H108.128L105.072 98.9047V98.9013Z" fill="white"/>
<path d="M135.098 102.121H133.69C133.421 102.121 133.231 102.019 133.109 101.811L131.348 99.146C131.283 99.0474 131.208 98.976 131.13 98.9318C131.052 98.891 130.933 98.8672 130.78 98.8672H130.114V102.117H128.553V93.7949H131.11C131.678 93.7949 132.167 93.8527 132.575 93.9717C132.983 94.0873 133.316 94.2539 133.578 94.4646C133.84 94.6754 134.03 94.927 134.156 95.2228C134.278 95.5152 134.343 95.8381 134.343 96.1917C134.343 96.4705 134.302 96.7356 134.217 96.9872C134.132 97.2354 134.013 97.4631 133.857 97.6671C133.7 97.8711 133.506 98.0479 133.275 98.2009C133.044 98.3539 132.782 98.4763 132.49 98.5646C132.589 98.6224 132.684 98.6904 132.769 98.7686C132.854 98.8468 132.932 98.9386 133 99.0474L135.098 102.121ZM131.086 97.7589C131.378 97.7589 131.637 97.7215 131.854 97.6501C132.072 97.5787 132.252 97.4768 132.391 97.3476C132.534 97.2184 132.636 97.0654 132.708 96.8886C132.776 96.7118 132.813 96.518 132.813 96.3073C132.813 95.8857 132.674 95.5627 132.391 95.335C132.109 95.1072 131.684 94.995 131.106 94.995H130.11V97.7555H131.083L131.086 97.7589Z" fill="white"/>
<path d="M140.47 95.0329V97.3413H143.404V98.5312H140.47V100.884H144.192V102.121H138.906V93.7988H144.192V95.0295H140.47V95.0329Z" fill="white"/>
<path d="M155.533 93.8017V102.124H154.734C154.612 102.124 154.507 102.104 154.425 102.063C154.343 102.022 154.262 101.954 154.184 101.859L149.808 96.3107C149.832 96.5656 149.842 96.7968 149.842 97.011V102.121H148.469V93.7983H149.285C149.349 93.7983 149.407 93.7983 149.455 93.8085C149.502 93.8153 149.546 93.8255 149.584 93.8425C149.621 93.8595 149.655 93.8833 149.693 93.9173C149.727 93.9513 149.767 93.9921 149.808 94.0465L154.201 99.6151C154.19 99.4826 154.18 99.35 154.173 99.2174C154.167 99.0882 154.163 98.9658 154.163 98.8536V93.7949H155.537L155.533 93.8017Z" fill="white"/>
<path d="M166.153 95.0733H163.627V102.124H162.067V95.0733H159.541V93.8018H166.153V95.0733Z" fill="white"/>
<path d="M178.644 98.9013V102.124H177.09V98.9013L174.034 93.8018H175.408C175.544 93.8018 175.649 93.8358 175.731 93.9004C175.809 93.965 175.877 94.0465 175.931 94.1485L177.461 96.9261C177.549 97.0926 177.628 97.2456 177.696 97.3918C177.764 97.538 177.825 97.6842 177.879 97.8304C177.93 97.6842 177.988 97.538 178.053 97.3918C178.117 97.2456 178.195 97.0892 178.28 96.9261L179.803 94.1485C179.844 94.0635 179.909 93.9853 179.994 93.914C180.079 93.8426 180.188 93.8052 180.32 93.8052H181.7L178.644 98.9047V98.9013Z" fill="white"/>
<path d="M192.96 97.9629C192.96 98.5715 192.858 99.1392 192.654 99.6594C192.45 100.18 192.164 100.628 191.794 101.009C191.423 101.39 190.978 101.686 190.454 101.9C189.931 102.114 189.353 102.219 188.713 102.219C188.074 102.219 187.503 102.114 186.98 101.9C186.456 101.686 186.011 101.39 185.637 101.009C185.263 100.628 184.974 100.18 184.77 99.6594C184.566 99.1392 184.464 98.5749 184.464 97.9629C184.464 97.351 184.566 96.7866 184.77 96.2699C184.974 95.7531 185.263 95.301 185.637 94.9202C186.011 94.5395 186.456 94.2437 186.98 94.0295C187.5 93.8154 188.078 93.71 188.713 93.71C189.138 93.71 189.54 93.7576 189.914 93.8561C190.288 93.9547 190.631 94.0907 190.947 94.2709C191.26 94.4511 191.542 94.6653 191.79 94.9202C192.038 95.1752 192.252 95.4608 192.426 95.7736C192.599 96.0897 192.732 96.4297 192.824 96.7968C192.915 97.164 192.96 97.5516 192.96 97.9595V97.9629ZM191.365 97.9629C191.365 97.5074 191.304 97.096 191.178 96.7357C191.056 96.3719 190.879 96.0659 190.651 95.811C190.423 95.556 190.145 95.3656 189.818 95.2296C189.492 95.097 189.125 95.029 188.713 95.029C188.302 95.029 187.935 95.097 187.609 95.2296C187.282 95.3656 187.003 95.556 186.772 95.811C186.541 96.0659 186.364 96.3719 186.242 96.7357C186.119 97.0994 186.058 97.5074 186.058 97.9629C186.058 98.4185 186.119 98.8299 186.242 99.1902C186.364 99.554 186.541 99.8599 186.772 100.112C187.003 100.363 187.279 100.557 187.609 100.689C187.935 100.825 188.302 100.89 188.713 100.89C189.125 100.89 189.492 100.822 189.818 100.689C190.145 100.557 190.423 100.363 190.651 100.112C190.879 99.8599 191.056 99.554 191.178 99.1902C191.301 98.8265 191.365 98.4185 191.365 97.9629Z" fill="white"/>
<path d="M200.606 100.874C200.909 100.874 201.177 100.823 201.415 100.724C201.653 100.625 201.854 100.483 202.014 100.302C202.177 100.122 202.299 99.9046 202.388 99.6462C202.476 99.3879 202.517 99.1023 202.517 98.7827V93.7988H204.077V98.7827C204.077 99.2791 203.996 99.7346 203.836 100.156C203.676 100.578 203.445 100.938 203.146 101.244C202.847 101.55 202.483 101.788 202.055 101.958C201.626 102.128 201.143 102.213 200.606 102.213C200.069 102.213 199.58 102.128 199.151 101.958C198.723 101.788 198.359 101.55 198.06 101.244C197.761 100.938 197.53 100.578 197.37 100.156C197.21 99.7346 197.128 99.2791 197.128 98.7827V93.7988H198.689V98.7759C198.689 99.0955 198.733 99.3811 198.818 99.6395C198.903 99.8978 199.029 100.115 199.195 100.299C199.359 100.483 199.559 100.622 199.797 100.721C200.035 100.819 200.304 100.87 200.606 100.87V100.874Z" fill="white"/>
<path d="M215.283 102.121H213.875C213.607 102.121 213.416 102.019 213.294 101.811L211.533 99.146C211.468 99.0474 211.393 98.976 211.315 98.9318C211.237 98.891 211.118 98.8672 210.965 98.8672H210.299V102.117H208.738V93.7949H211.295C211.863 93.7949 212.352 93.8527 212.76 93.9717C213.168 94.0873 213.501 94.2539 213.763 94.4646C214.025 94.6754 214.215 94.927 214.341 95.2228C214.463 95.5152 214.528 95.8381 214.528 96.1917C214.528 96.4705 214.487 96.7356 214.402 96.9872C214.317 97.2354 214.198 97.4631 214.042 97.6671C213.885 97.8711 213.692 98.0479 213.46 98.2009C213.229 98.3539 212.967 98.4763 212.675 98.5646C212.774 98.6224 212.869 98.6904 212.954 98.7686C213.039 98.8468 213.117 98.9386 213.185 99.0474L215.283 102.121ZM211.271 97.7589C211.563 97.7589 211.822 97.7215 212.039 97.6501C212.257 97.5787 212.437 97.4768 212.577 97.3476C212.719 97.2184 212.821 97.0654 212.893 96.8886C212.961 96.7118 212.998 96.518 212.998 96.3073C212.998 95.8857 212.859 95.5627 212.577 95.335C212.294 95.1072 211.869 94.995 211.291 94.995H210.295V97.7555H211.268L211.271 97.7589Z" fill="white"/>
<path d="M235.884 93.8018L233.28 102.124H231.872L230.04 96.4399C229.989 96.3005 229.944 96.1339 229.9 95.9334C229.876 96.0285 229.853 96.1203 229.832 96.2053C229.812 96.2903 229.785 96.3685 229.758 96.4399L227.908 102.124H226.494L223.896 93.8018H225.202C225.338 93.8018 225.45 93.8324 225.542 93.897C225.634 93.9616 225.695 94.0465 225.726 94.1519L227.15 99.129C227.181 99.2514 227.211 99.384 227.238 99.5302C227.266 99.673 227.296 99.826 227.327 99.9824C227.357 99.8226 227.391 99.6696 227.429 99.5268C227.466 99.384 227.504 99.2514 227.548 99.129L229.193 94.1519C229.224 94.0635 229.285 93.9819 229.377 93.9105C229.469 93.8392 229.577 93.8018 229.71 93.8018H230.169C230.305 93.8018 230.414 93.8358 230.499 93.9004C230.584 93.965 230.648 94.0499 230.689 94.1553L232.331 99.1325C232.413 99.3704 232.484 99.6458 232.552 99.9552C232.603 99.6526 232.657 99.3772 232.719 99.1325L234.143 94.1553C234.167 94.0601 234.225 93.9785 234.32 93.9071C234.415 93.8392 234.527 93.8052 234.66 93.8052H235.884V93.8018Z" fill="white"/>
<path d="M246.444 102.121H245.237C245.101 102.121 244.992 102.087 244.907 102.019C244.822 101.951 244.758 101.869 244.717 101.767L244.091 100.071H240.62L239.995 101.767C239.964 101.856 239.903 101.937 239.814 102.009C239.726 102.08 239.614 102.117 239.485 102.117H238.268L241.565 93.7949H243.153L246.444 102.117V102.121ZM243.69 98.9794L242.67 96.2121C242.619 96.0897 242.568 95.9435 242.514 95.7735C242.459 95.6035 242.405 95.4233 242.351 95.2262C242.3 95.4233 242.249 95.6069 242.194 95.7769C242.14 95.9469 242.089 96.0965 242.038 96.2223L241.025 98.9794H243.69Z" fill="white"/>
<path d="M252.943 98.9013V102.124H251.39V98.9013L248.333 93.8018H249.707C249.843 93.8018 249.948 93.8358 250.03 93.9004C250.108 93.965 250.176 94.0465 250.23 94.1485L251.76 96.9261C251.849 97.0926 251.927 97.2456 251.995 97.3918C252.063 97.538 252.124 97.6842 252.178 97.8304C252.229 97.6842 252.287 97.538 252.352 97.3918C252.416 97.2456 252.495 97.0892 252.58 96.9261L254.103 94.1485C254.144 94.0635 254.208 93.9853 254.293 93.914C254.378 93.8426 254.487 93.8052 254.619 93.8052H256L252.943 98.9047V98.9013Z" fill="white"/>
<path d="M117.001 99.4655C117.769 99.4655 118.392 98.843 118.392 98.075C118.392 97.3071 117.769 96.6846 117.001 96.6846C116.233 96.6846 115.611 97.3071 115.611 98.075C115.611 98.843 116.233 99.4655 117.001 99.4655Z" fill="white"/>
<path d="M163.709 25.207H154.156V63.1031H163.709V25.207Z" fill="white"/>
<path d="M47.6175 54.8078C46.4378 55.1545 45.1255 55.3483 43.6535 55.3483C42.3276 55.3483 41.0527 55.1205 39.8289 54.6616C38.605 54.2026 37.5069 53.5805 36.5414 52.7884C35.5725 51.9997 34.7939 51.0545 34.2092 49.9599C33.6211 48.8652 33.2777 47.6549 33.1757 46.329H61.087C60.9714 41.2125 60.7164 37.6769 59.8257 35.2019C58.9316 32.7303 57.6975 30.6633 56.1166 29.0077C54.5358 27.3521 52.6626 26.101 50.497 25.2613C48.3314 24.4182 45.9721 24 43.4223 24C40.6686 24 38.1086 24.4726 35.7391 25.4143C33.3695 26.3594 31.3161 27.6818 29.5822 29.3919C27.8484 31.0985 26.4852 33.1655 25.4925 35.5861C24.4964 38.0066 24 40.6958 24 43.6535C24 46.6112 24.4964 49.3513 25.4925 51.7209C26.4852 54.0904 27.862 56.0928 29.6231 57.7247C31.3807 59.3565 33.4579 60.6178 35.8547 61.5085C38.2514 62.3992 40.876 62.848 43.7317 62.848C46.7846 62.848 49.4941 62.338 51.9079 61.3759C49.4567 60.1588 47.7535 57.7043 47.6209 54.8146L47.6175 54.8078ZM36.3476 33.3661C38.2582 31.7104 40.5903 30.8809 43.3441 30.8809C44.8229 30.8809 46.108 31.1223 47.2061 31.6085C48.3008 32.0946 49.2051 32.7439 49.9225 33.5599C50.6364 34.3758 51.1566 35.3175 51.4897 36.3884C51.8195 37.4593 51.9861 38.5812 51.9861 39.7541H33.1757C33.3797 37.1533 34.437 35.0251 36.3476 33.3695V33.3661Z" fill="white"/>
<path d="M55.3176 59.1459C57.903 59.1459 59.9989 57.05 59.9989 54.4646C59.9989 51.8791 57.903 49.7832 55.3176 49.7832C52.7321 49.7832 50.6362 51.8791 50.6362 54.4646C50.6362 57.05 52.7321 59.1459 55.3176 59.1459Z" fill="url(#paint0_linear_7_338)"/>
<path d="M208.962 35.7764C208.095 33.4306 206.871 31.3942 205.29 29.6604C203.71 27.9265 201.823 26.5633 199.633 25.5706C197.441 24.5779 195.044 24.0781 192.447 24.0781C190.764 24.0781 189.247 24.2685 187.898 24.6527C186.545 25.0334 185.334 25.5196 184.267 26.1043C183.196 26.6891 182.292 27.3554 181.551 28.0931C180.809 28.8309 180.211 29.5584 179.752 30.2723H179.521V25.149H170.726V69.5759C172.018 68.607 173.606 68.012 175.346 68.012C177.087 68.012 178.623 68.5832 179.902 69.5249V56.9597H180.055C181.228 58.7955 182.897 60.2472 185.062 61.3181C187.228 62.389 189.611 62.9227 192.212 62.9227C195.017 62.9227 197.526 62.3992 199.746 61.3555C201.962 60.3118 203.849 58.9077 205.406 57.1501C206.96 55.3924 208.16 53.3289 208.999 50.9559C209.839 48.5863 210.261 46.0502 210.261 43.3474C210.261 40.6447 209.826 38.1221 208.962 35.7764ZM201.932 47.6276C201.496 49.0555 200.847 50.3304 199.984 51.4488C199.117 52.5707 198.019 53.4886 196.696 54.2026C195.37 54.9165 193.817 55.2735 192.032 55.2735C190.349 55.2735 188.846 54.9301 187.52 54.24C186.195 53.5532 185.059 52.6489 184.117 51.527C183.172 50.4051 182.462 49.1439 181.976 47.7398C181.489 46.3391 181.248 44.9249 181.248 43.497C181.248 42.0692 181.489 40.6447 181.976 39.2168C182.458 37.789 183.172 36.5141 184.117 35.3922C185.059 34.2737 186.195 33.3524 187.52 32.6385C188.846 31.9246 190.349 31.5676 192.032 31.5676C193.817 31.5676 195.37 31.9109 196.696 32.6011C198.022 33.2878 199.117 34.1955 199.984 35.314C200.85 36.4359 201.5 37.6972 201.932 39.0978C202.363 40.5019 202.581 41.9162 202.581 43.3406C202.581 44.7651 202.363 46.1963 201.932 47.6242V47.6276Z" fill="white"/>
<path d="M175.349 80.4271C177.935 80.4271 180.031 78.3312 180.031 75.7458C180.031 73.1604 177.935 71.0645 175.349 71.0645C172.764 71.0645 170.668 73.1604 170.668 75.7458C170.668 78.3312 172.764 80.4271 175.349 80.4271Z" fill="url(#paint1_linear_7_338)"/>
<path d="M67.305 35.7764C68.172 33.4306 69.3958 31.3942 70.9766 29.6604C72.5575 27.9265 74.4443 26.5633 76.6337 25.5706C78.8265 24.5779 81.2232 24.0781 83.8206 24.0781C85.5034 24.0781 87.0197 24.2685 88.3694 24.6527C89.7224 25.0334 90.9327 25.5196 92.0002 26.1043C93.0711 26.6891 93.9754 27.3554 94.7165 28.0931C95.4576 28.8309 96.056 29.5584 96.5149 30.2723H96.7461V25.149H105.541V69.5759C104.249 68.607 102.662 68.012 100.921 68.012C99.1803 68.012 97.6437 68.5832 96.3654 69.5249V56.9597H96.2123C95.0394 58.7955 93.3702 60.2472 91.2046 61.3181C89.039 62.389 86.6559 62.9227 84.0551 62.9227C81.2504 62.9227 78.7415 62.3992 76.5215 61.3555C74.3049 60.3118 72.4181 58.9077 70.8611 57.1501C69.3074 55.3924 68.1073 53.3289 67.2676 50.9559C66.4279 48.5863 66.0063 46.0502 66.0063 43.3474C66.0063 40.6447 66.4415 38.1221 67.305 35.7764ZM74.3355 47.6276C74.7707 49.0555 75.42 50.3304 76.2835 51.4488C77.1504 52.5707 78.2485 53.4886 79.571 54.2026C80.8969 54.9165 82.4505 55.2735 84.2353 55.2735C85.9181 55.2735 87.4208 54.9301 88.7467 54.24C90.0725 53.5532 91.208 52.6489 92.1497 51.527C93.0949 50.4051 93.8054 49.1439 94.2916 47.7398C94.7777 46.3391 95.019 44.9249 95.019 43.497C95.019 42.0692 94.7777 40.6447 94.2916 39.2168C93.8088 37.789 93.0949 36.5141 92.1497 35.3922C91.208 34.2737 90.0725 33.3524 88.7467 32.6385C87.4208 31.9246 85.9181 31.5676 84.2353 31.5676C82.4505 31.5676 80.8969 31.9109 79.571 32.6011C78.2451 33.2878 77.1504 34.1955 76.2835 35.314C75.4166 36.4359 74.7673 37.6972 74.3355 39.0978C73.9038 40.5019 73.6861 41.9162 73.6861 43.3406C73.6861 44.7651 73.9038 46.1963 74.3355 47.6242V47.6276Z" fill="white"/>
<path d="M100.918 80.4281C103.503 80.4281 105.599 78.3322 105.599 75.7468C105.599 73.1613 103.503 71.0654 100.918 71.0654C98.3322 71.0654 96.2363 73.1613 96.2363 75.7468C96.2363 78.3322 98.3322 80.4281 100.918 80.4281Z" fill="url(#paint2_linear_7_338)"/>
<path d="M254.385 35.6983C253.519 33.3525 252.295 31.3161 250.714 29.5823C249.133 27.8484 247.246 26.4852 245.057 25.4925C242.864 24.4998 240.467 24 237.87 24C236.187 24 234.671 24.1904 233.321 24.5745C231.968 24.9553 230.758 25.4415 229.69 26.0262C228.619 26.6109 227.715 27.2773 226.974 28.015C226.233 28.7527 225.634 29.4803 225.176 30.1942H224.944V25.0709H216.149V69.4977C217.441 68.5288 219.029 67.9339 220.77 67.9339C222.51 67.9339 224.047 68.505 225.325 69.4467V56.8816H225.478C226.651 58.7174 228.32 60.1691 230.486 61.2399C232.651 62.3108 235.035 62.8446 237.635 62.8446C240.44 62.8446 242.949 62.321 245.169 61.2773C247.386 60.2336 249.272 58.8296 250.829 57.072C252.383 55.3143 253.583 53.2507 254.423 50.8778C255.263 48.5082 255.684 45.972 255.684 43.2693C255.684 40.5666 255.249 38.044 254.385 35.6983ZM247.355 47.5495C246.92 48.9773 246.27 50.2522 245.407 51.3707C244.54 52.4926 243.442 53.4105 242.12 54.1244C240.794 54.8384 239.24 55.1953 237.455 55.1953C235.772 55.1953 234.27 54.852 232.944 54.1618C231.618 53.4751 230.482 52.5708 229.541 51.4489C228.596 50.327 227.885 49.0657 227.399 47.6617C226.913 46.261 226.671 44.8468 226.671 43.4189C226.671 41.991 226.913 40.5666 227.399 39.1387C227.882 37.7109 228.596 36.436 229.541 35.3141C230.482 34.1956 231.618 33.2743 232.944 32.5604C234.27 31.8464 235.772 31.4895 237.455 31.4895C239.24 31.4895 240.794 31.8328 242.12 32.523C243.445 33.2097 244.54 34.1174 245.407 35.2359C246.274 36.3578 246.923 37.6191 247.355 39.0197C247.787 40.4238 248.004 41.8381 248.004 43.2625C248.004 44.687 247.787 46.1182 247.355 47.5461V47.5495Z" fill="white"/>
<path d="M220.772 80.349C223.358 80.349 225.454 78.2531 225.454 75.6677C225.454 73.0822 223.358 70.9863 220.772 70.9863C218.187 70.9863 216.091 73.0822 216.091 75.6677C216.091 78.2531 218.187 80.349 220.772 80.349Z" fill="url(#paint3_linear_7_338)"/>
<path d="M147.139 25.207V62.6951H138.236V56.6811H138.079C137.246 58.5578 135.798 60.21 133.745 61.6413C131.688 63.0725 129.254 63.7898 126.442 63.7898C123.998 63.7898 121.9 63.3581 120.156 62.5014C118.412 61.6447 116.981 60.5092 115.862 59.1051C114.741 57.6976 113.921 56.0862 113.404 54.264C112.884 52.4418 112.623 50.5685 112.623 48.6409V25.2104H121.995V45.9858C121.995 47.0805 122.074 48.2228 122.227 49.4229C122.383 50.6229 122.72 51.7006 123.243 52.6627C123.767 53.6249 124.481 54.4204 125.392 55.0459C126.303 55.668 127.516 55.9842 129.023 55.9842C130.529 55.9842 131.766 55.685 132.891 55.0867C134.01 54.4883 134.921 53.72 135.625 52.7817C136.325 51.8434 136.859 50.7623 137.226 49.5418C137.467 48.7361 137.624 47.9236 137.705 47.1043V25.2138H147.143L147.139 25.207Z" fill="white"/>
<path d="M31.476 102.121H30.0686C29.8 102.121 29.6096 102.019 29.4872 101.811L27.7262 99.146C27.6616 99.0474 27.5868 98.976 27.5086 98.9318C27.4304 98.891 27.3114 98.8672 27.1584 98.8672H26.4921V102.117H24.9316V93.7949H27.4882C28.0559 93.7949 28.5455 93.8527 28.9535 93.9717C29.3614 94.0873 29.6946 94.2539 29.9564 94.4646C30.2181 94.6754 30.4085 94.927 30.5343 95.2228C30.6567 95.5152 30.7213 95.8381 30.7213 96.1917C30.7213 96.4705 30.6804 96.7356 30.5955 96.9872C30.5105 97.2354 30.3915 97.4631 30.2352 97.6671C30.0788 97.8711 29.885 98.0479 29.6538 98.2009C29.4226 98.3539 29.1609 98.4763 28.8685 98.5646C28.9671 98.6224 29.0623 98.6904 29.1473 98.7686C29.2323 98.8468 29.3104 98.9386 29.3784 99.0474L31.476 102.121ZM27.4644 97.7589C27.7567 97.7589 28.0151 97.7215 28.2327 97.6501C28.4503 97.5787 28.6305 97.4768 28.7699 97.3476C28.9127 97.2184 29.0146 97.0654 29.086 96.8886C29.154 96.7118 29.1914 96.518 29.1914 96.3073C29.1914 95.8857 29.052 95.5627 28.7699 95.335C28.4877 95.1072 28.0627 94.995 27.4848 94.995H26.4887V97.7555H27.461L27.4644 97.7589Z" fill="white"/>
<path d="M36.8476 95.0329V97.3413H39.7814V98.5312H36.8476V100.884H40.5702V102.121H35.2837V93.7988H40.5702V95.0295H36.8476V95.0329Z" fill="white"/>
<path d="M51.9151 93.8017V102.124H51.1161C50.9938 102.124 50.8884 102.104 50.8068 102.063C50.7252 102.022 50.6436 101.954 50.5654 101.859L46.19 96.3107C46.2138 96.5656 46.2241 96.7968 46.2241 97.011V102.121H44.8506V93.7983H45.6665C45.7311 93.7983 45.7889 93.7983 45.8365 93.8085C45.8841 93.8153 45.9283 93.8255 45.9657 93.8425C46.0031 93.8595 46.037 93.8833 46.0744 93.9173C46.1084 93.9513 46.1492 93.9921 46.19 94.0465L50.5824 99.6151C50.5722 99.4826 50.562 99.35 50.5552 99.2174C50.5484 99.0882 50.545 98.9658 50.545 98.8536V93.7949H51.9185L51.9151 93.8017Z" fill="white"/>
<path d="M62.5313 95.0733H60.0053V102.124H58.4449V95.0733H55.9189V93.8018H62.5313V95.0733Z" fill="white"/>
<path d="M73.4583 95.0329V97.3413H76.3923V98.5312H73.4583V100.884H77.1809V102.121H71.8945V93.7988H77.1809V95.0295H73.4583V95.0329Z" fill="white"/>
<path d="M88.6376 102.121H87.4307C87.2948 102.121 87.186 102.087 87.101 102.019C87.016 101.951 86.9514 101.869 86.9106 101.767L86.285 100.071H82.814L82.1884 101.767C82.1578 101.856 82.0967 101.937 82.0083 102.009C81.9199 102.08 81.8076 102.117 81.6784 102.117H80.4614L83.7591 93.7949H85.3467L88.6376 102.117V102.121ZM85.8839 98.9794L84.864 96.2121C84.813 96.0897 84.762 95.9435 84.7076 95.7735C84.6532 95.6035 84.5988 95.4233 84.5444 95.2262C84.4934 95.4233 84.4425 95.6069 84.3881 95.7769C84.3337 95.9469 84.2826 96.0965 84.2316 96.2223L83.2185 98.9794H85.8839Z" fill="white"/>
<path d="M96.8679 95.3151C96.8203 95.3967 96.7727 95.4545 96.7217 95.4919C96.6707 95.5293 96.6062 95.5463 96.528 95.5463C96.4498 95.5463 96.358 95.5157 96.2628 95.4579C96.1676 95.4001 96.0554 95.3322 95.9228 95.2608C95.7902 95.1894 95.6372 95.1214 95.4604 95.0636C95.2836 95.0058 95.0763 94.9752 94.8383 94.9752C94.6208 94.9752 94.4337 95.0024 94.2705 95.0534C94.1074 95.1044 93.9714 95.1758 93.8626 95.2675C93.7538 95.3593 93.6688 95.4715 93.6178 95.5973C93.5668 95.7231 93.5362 95.8659 93.5362 96.0189C93.5362 96.2161 93.5906 96.3758 93.7028 96.5084C93.815 96.641 93.9578 96.7498 94.1414 96.8416C94.3216 96.9334 94.529 97.015 94.7602 97.0898C94.9913 97.1612 95.2293 97.2394 95.474 97.3244C95.7188 97.406 95.9568 97.5011 96.188 97.6133C96.4192 97.7221 96.6265 97.8615 96.8067 98.0281C96.9869 98.1947 97.1331 98.3987 97.2453 98.64C97.354 98.8814 97.4118 99.1738 97.4118 99.5205C97.4118 99.8979 97.3473 100.248 97.2181 100.578C97.0889 100.908 96.8985 101.193 96.6503 101.435C96.4021 101.679 96.0962 101.87 95.7358 102.009C95.3755 102.148 94.9641 102.22 94.5018 102.22C94.2332 102.22 93.9714 102.193 93.713 102.142C93.4547 102.091 93.2065 102.016 92.9685 101.921C92.7306 101.826 92.5061 101.71 92.2987 101.574C92.0913 101.441 91.9044 101.292 91.7412 101.125L92.2002 100.384C92.2376 100.33 92.2886 100.285 92.3498 100.248C92.411 100.211 92.479 100.194 92.547 100.194C92.6422 100.194 92.7475 100.234 92.8597 100.313C92.9719 100.391 93.1045 100.479 93.2609 100.574C93.4172 100.67 93.5974 100.758 93.8014 100.836C94.0088 100.914 94.257 100.955 94.5459 100.955C94.9913 100.955 95.3347 100.85 95.5794 100.642C95.8242 100.435 95.9432 100.132 95.9432 99.7415C95.9432 99.5239 95.8888 99.3438 95.7767 99.2078C95.6679 99.0684 95.5217 98.9528 95.3381 98.861C95.1579 98.7658 94.9505 98.6876 94.7193 98.623C94.4881 98.5584 94.2501 98.487 94.0122 98.4089C93.7742 98.3307 93.5363 98.2389 93.3051 98.1335C93.0739 98.0247 92.8665 97.8853 92.6863 97.7119C92.5061 97.5385 92.3599 97.3244 92.2478 97.066C92.139 96.8076 92.0812 96.488 92.0812 96.1073C92.0812 95.8047 92.1424 95.5089 92.2648 95.22C92.3872 94.931 92.564 94.676 92.7951 94.455C93.0263 94.2341 93.3119 94.0539 93.6519 93.9213C93.9918 93.7887 94.3828 93.7207 94.8213 93.7207C95.3177 93.7207 95.7732 93.7989 96.188 93.9519C96.6028 94.1049 96.9597 94.3191 97.2555 94.5978L96.8679 95.3288V95.3151Z" fill="white"/>
<path d="M105.072 98.9013V102.124H103.518V98.9013L100.462 93.8018H101.835C101.971 93.8018 102.077 93.8358 102.158 93.9004C102.237 93.965 102.305 94.0465 102.359 94.1485L103.889 96.9261C103.977 97.0926 104.055 97.2456 104.123 97.3918C104.191 97.538 104.253 97.6842 104.307 97.8304C104.358 97.6842 104.416 97.538 104.48 97.3918C104.545 97.2456 104.623 97.0892 104.708 96.9261L106.231 94.1485C106.272 94.0635 106.337 93.9853 106.422 93.914C106.507 93.8426 106.615 93.8052 106.748 93.8052H108.128L105.072 98.9047V98.9013Z" fill="white"/>
<path d="M135.098 102.121H133.69C133.421 102.121 133.231 102.019 133.109 101.811L131.348 99.146C131.283 99.0474 131.208 98.976 131.13 98.9318C131.052 98.891 130.933 98.8672 130.78 98.8672H130.114V102.117H128.553V93.7949H131.11C131.678 93.7949 132.167 93.8527 132.575 93.9717C132.983 94.0873 133.316 94.2539 133.578 94.4646C133.84 94.6754 134.03 94.927 134.156 95.2228C134.278 95.5152 134.343 95.8381 134.343 96.1917C134.343 96.4705 134.302 96.7356 134.217 96.9872C134.132 97.2354 134.013 97.4631 133.857 97.6671C133.7 97.8711 133.506 98.0479 133.275 98.2009C133.044 98.3539 132.782 98.4763 132.49 98.5646C132.589 98.6224 132.684 98.6904 132.769 98.7686C132.854 98.8468 132.932 98.9386 133 99.0474L135.098 102.121ZM131.086 97.7589C131.378 97.7589 131.637 97.7215 131.854 97.6501C132.072 97.5787 132.252 97.4768 132.391 97.3476C132.534 97.2184 132.636 97.0654 132.708 96.8886C132.776 96.7118 132.813 96.518 132.813 96.3073C132.813 95.8857 132.674 95.5627 132.391 95.335C132.109 95.1072 131.684 94.995 131.106 94.995H130.11V97.7555H131.083L131.086 97.7589Z" fill="white"/>
<path d="M140.47 95.0329V97.3413H143.404V98.5312H140.47V100.884H144.192V102.121H138.906V93.7988H144.192V95.0295H140.47V95.0329Z" fill="white"/>
<path d="M155.533 93.8017V102.124H154.734C154.612 102.124 154.507 102.104 154.425 102.063C154.343 102.022 154.262 101.954 154.184 101.859L149.808 96.3107C149.832 96.5656 149.842 96.7968 149.842 97.011V102.121H148.469V93.7983H149.285C149.349 93.7983 149.407 93.7983 149.455 93.8085C149.502 93.8153 149.546 93.8255 149.584 93.8425C149.621 93.8595 149.655 93.8833 149.693 93.9173C149.727 93.9513 149.767 93.9921 149.808 94.0465L154.201 99.6151C154.19 99.4826 154.18 99.35 154.173 99.2174C154.167 99.0882 154.163 98.9658 154.163 98.8536V93.7949H155.537L155.533 93.8017Z" fill="white"/>
<path d="M166.153 95.0733H163.627V102.124H162.067V95.0733H159.541V93.8018H166.153V95.0733Z" fill="white"/>
<path d="M178.644 98.9013V102.124H177.09V98.9013L174.034 93.8018H175.408C175.544 93.8018 175.649 93.8358 175.731 93.9004C175.809 93.965 175.877 94.0465 175.931 94.1485L177.461 96.9261C177.549 97.0926 177.628 97.2456 177.696 97.3918C177.764 97.538 177.825 97.6842 177.879 97.8304C177.93 97.6842 177.988 97.538 178.053 97.3918C178.117 97.2456 178.195 97.0892 178.28 96.9261L179.803 94.1485C179.844 94.0635 179.909 93.9853 179.994 93.914C180.079 93.8426 180.188 93.8052 180.32 93.8052H181.7L178.644 98.9047V98.9013Z" fill="white"/>
<path d="M192.96 97.9629C192.96 98.5715 192.858 99.1392 192.654 99.6594C192.45 100.18 192.164 100.628 191.794 101.009C191.423 101.39 190.978 101.686 190.454 101.9C189.931 102.114 189.353 102.219 188.713 102.219C188.074 102.219 187.503 102.114 186.98 101.9C186.456 101.686 186.011 101.39 185.637 101.009C185.263 100.628 184.974 100.18 184.77 99.6594C184.566 99.1392 184.464 98.5749 184.464 97.9629C184.464 97.351 184.566 96.7866 184.77 96.2699C184.974 95.7531 185.263 95.301 185.637 94.9202C186.011 94.5395 186.456 94.2437 186.98 94.0295C187.5 93.8154 188.078 93.71 188.713 93.71C189.138 93.71 189.54 93.7576 189.914 93.8561C190.288 93.9547 190.631 94.0907 190.947 94.2709C191.26 94.4511 191.542 94.6653 191.79 94.9202C192.038 95.1752 192.252 95.4608 192.426 95.7736C192.599 96.0897 192.732 96.4297 192.824 96.7968C192.915 97.164 192.96 97.5516 192.96 97.9595V97.9629ZM191.365 97.9629C191.365 97.5074 191.304 97.096 191.178 96.7357C191.056 96.3719 190.879 96.0659 190.651 95.811C190.423 95.556 190.145 95.3656 189.818 95.2296C189.492 95.097 189.125 95.029 188.713 95.029C188.302 95.029 187.935 95.097 187.609 95.2296C187.282 95.3656 187.003 95.556 186.772 95.811C186.541 96.0659 186.364 96.3719 186.242 96.7357C186.119 97.0994 186.058 97.5074 186.058 97.9629C186.058 98.4185 186.119 98.8299 186.242 99.1902C186.364 99.554 186.541 99.8599 186.772 100.112C187.003 100.363 187.279 100.557 187.609 100.689C187.935 100.825 188.302 100.89 188.713 100.89C189.125 100.89 189.492 100.822 189.818 100.689C190.145 100.557 190.423 100.363 190.651 100.112C190.879 99.8599 191.056 99.554 191.178 99.1902C191.301 98.8265 191.365 98.4185 191.365 97.9629Z" fill="white"/>
<path d="M200.606 100.874C200.909 100.874 201.177 100.823 201.415 100.724C201.653 100.625 201.854 100.483 202.014 100.302C202.177 100.122 202.299 99.9046 202.388 99.6462C202.476 99.3879 202.517 99.1023 202.517 98.7827V93.7988H204.077V98.7827C204.077 99.2791 203.996 99.7346 203.836 100.156C203.676 100.578 203.445 100.938 203.146 101.244C202.847 101.55 202.483 101.788 202.055 101.958C201.626 102.128 201.143 102.213 200.606 102.213C200.069 102.213 199.58 102.128 199.151 101.958C198.723 101.788 198.359 101.55 198.06 101.244C197.761 100.938 197.53 100.578 197.37 100.156C197.21 99.7346 197.128 99.2791 197.128 98.7827V93.7988H198.689V98.7759C198.689 99.0955 198.733 99.3811 198.818 99.6395C198.903 99.8978 199.029 100.115 199.195 100.299C199.359 100.483 199.559 100.622 199.797 100.721C200.035 100.819 200.304 100.87 200.606 100.87V100.874Z" fill="white"/>
<path d="M215.283 102.121H213.875C213.607 102.121 213.416 102.019 213.294 101.811L211.533 99.146C211.468 99.0474 211.393 98.976 211.315 98.9318C211.237 98.891 211.118 98.8672 210.965 98.8672H210.299V102.117H208.738V93.7949H211.295C211.863 93.7949 212.352 93.8527 212.76 93.9717C213.168 94.0873 213.501 94.2539 213.763 94.4646C214.025 94.6754 214.215 94.927 214.341 95.2228C214.463 95.5152 214.528 95.8381 214.528 96.1917C214.528 96.4705 214.487 96.7356 214.402 96.9872C214.317 97.2354 214.198 97.4631 214.042 97.6671C213.885 97.8711 213.692 98.0479 213.46 98.2009C213.229 98.3539 212.967 98.4763 212.675 98.5646C212.774 98.6224 212.869 98.6904 212.954 98.7686C213.039 98.8468 213.117 98.9386 213.185 99.0474L215.283 102.121ZM211.271 97.7589C211.563 97.7589 211.822 97.7215 212.039 97.6501C212.257 97.5787 212.437 97.4768 212.577 97.3476C212.719 97.2184 212.821 97.0654 212.893 96.8886C212.961 96.7118 212.998 96.518 212.998 96.3073C212.998 95.8857 212.859 95.5627 212.577 95.335C212.294 95.1072 211.869 94.995 211.291 94.995H210.295V97.7555H211.268L211.271 97.7589Z" fill="white"/>
<path d="M235.884 93.8018L233.28 102.124H231.872L230.04 96.4399C229.989 96.3005 229.944 96.1339 229.9 95.9334C229.876 96.0285 229.853 96.1203 229.832 96.2053C229.812 96.2903 229.785 96.3685 229.758 96.4399L227.908 102.124H226.494L223.896 93.8018H225.202C225.338 93.8018 225.45 93.8324 225.542 93.897C225.634 93.9616 225.695 94.0465 225.726 94.1519L227.15 99.129C227.181 99.2514 227.211 99.384 227.238 99.5302C227.266 99.673 227.296 99.826 227.327 99.9824C227.357 99.8226 227.391 99.6696 227.429 99.5268C227.466 99.384 227.504 99.2514 227.548 99.129L229.193 94.1519C229.224 94.0635 229.285 93.9819 229.377 93.9105C229.469 93.8392 229.577 93.8018 229.71 93.8018H230.169C230.305 93.8018 230.414 93.8358 230.499 93.9004C230.584 93.965 230.648 94.0499 230.689 94.1553L232.331 99.1325C232.413 99.3704 232.484 99.6458 232.552 99.9552C232.603 99.6526 232.657 99.3772 232.719 99.1325L234.143 94.1553C234.167 94.0601 234.225 93.9785 234.32 93.9071C234.415 93.8392 234.527 93.8052 234.66 93.8052H235.884V93.8018Z" fill="white"/>
<path d="M246.444 102.121H245.237C245.101 102.121 244.992 102.087 244.907 102.019C244.822 101.951 244.758 101.869 244.717 101.767L244.091 100.071H240.62L239.995 101.767C239.964 101.856 239.903 101.937 239.814 102.009C239.726 102.08 239.614 102.117 239.485 102.117H238.268L241.565 93.7949H243.153L246.444 102.117V102.121ZM243.69 98.9794L242.67 96.2121C242.619 96.0897 242.568 95.9435 242.514 95.7735C242.459 95.6035 242.405 95.4233 242.351 95.2262C242.3 95.4233 242.249 95.6069 242.194 95.7769C242.14 95.9469 242.089 96.0965 242.038 96.2223L241.025 98.9794H243.69Z" fill="white"/>
<path d="M252.943 98.9013V102.124H251.39V98.9013L248.333 93.8018H249.707C249.843 93.8018 249.948 93.8358 250.03 93.9004C250.108 93.965 250.176 94.0465 250.23 94.1485L251.76 96.9261C251.849 97.0926 251.927 97.2456 251.995 97.3918C252.063 97.538 252.124 97.6842 252.178 97.8304C252.229 97.6842 252.287 97.538 252.352 97.3918C252.416 97.2456 252.495 97.0892 252.58 96.9261L254.103 94.1485C254.144 94.0635 254.208 93.9853 254.293 93.914C254.378 93.8426 254.487 93.8052 254.619 93.8052H256L252.943 98.9047V98.9013Z" fill="white"/>
<path d="M117.001 99.4655C117.769 99.4655 118.392 98.843 118.392 98.075C118.392 97.3071 117.769 96.6846 117.001 96.6846C116.233 96.6846 115.611 97.3071 115.611 98.075C115.611 98.843 116.233 99.4655 117.001 99.4655Z" fill="white"/>
<defs>
<linearGradient id="paint0_linear_7_338" x1="58.6242" y1="51.1493" x2="51.9945" y2="57.7621" gradientUnits="userSpaceOnUse">
<stop stop-color="#C76537"/>
<stop offset="0.26" stop-color="#EF9571"/>
<stop offset="0.53" stop-color="#BC5137"/>
<stop offset="1" stop-color="#F6996B"/>
</linearGradient>
<linearGradient id="paint1_linear_7_338" x1="178.656" y1="72.4306" x2="172.026" y2="79.0434" gradientUnits="userSpaceOnUse">
<stop stop-color="#C76537"/>
<stop offset="0.26" stop-color="#EF9571"/>
<stop offset="0.53" stop-color="#BC5137"/>
<stop offset="1" stop-color="#F6996B"/>
</linearGradient>
<linearGradient id="paint2_linear_7_338" x1="104.224" y1="72.4316" x2="97.5945" y2="79.0443" gradientUnits="userSpaceOnUse">
<stop stop-color="#C76537"/>
<stop offset="0.26" stop-color="#EF9571"/>
<stop offset="0.53" stop-color="#BC5137"/>
<stop offset="1" stop-color="#F6996B"/>
</linearGradient>
<linearGradient id="paint3_linear_7_338" x1="224.079" y1="72.3525" x2="217.449" y2="78.9652" gradientUnits="userSpaceOnUse">
<stop stop-color="#C76537"/>
<stop offset="0.26" stop-color="#EF9571"/>
<stop offset="0.53" stop-color="#BC5137"/>
<stop offset="1" stop-color="#F6996B"/>
</linearGradient>
</defs>
</svg>
